<svg width="30" height="20" viewBox="0 0 30 20" fill="none" xmlns="http://www.w3.org/2000/svg">
<rect x="0.5" y="0.5" width="29" height="29" rx="14.5" fill="#B94444"/>
<rect x="0.5" y="0.5" width="29" height="29" rx="14.5" stroke="#C4C4C4"/>
<g opacity="0.7">
<path d="M6.4502 13.5029C8.485 12.4354 10.3367 11.3842 12.2701 10.5072C12.739 10.2945 13.5574 10.5118 14.071 10.7891C14.7186 11.1389 15.1899 11.3124 15.8227 10.7993C16.5759 10.1886 17.3644 10.2362 18.2359 10.7269C19.9285 11.6795 21.6781 12.5339 23.5502 13.5049C21.981 14.4341 20.3485 14.7904 18.6927 14.5074C16.1509 14.073 13.6622 14.1112 11.1237 14.5144C9.53834 14.7663 7.96696 14.4312 6.4502 13.503V13.5029Z" fill="black"/>
<path d="M6.56982 14.1307C12.2337 16.5236 17.7255 16.5261 23.2252 14.1966C22.6054 16.5881 18.8212 19.4542 15.9293 19.7577C12.2945 20.1392 8.48651 17.9115 6.56982 14.1307Z" fill="black"/>
</g>
</svg>
