<svg width="30" height="30" viewBox="0 0 30 30" fill="none" xmlns="http://www.w3.org/2000/svg">
<g clip-path="url(#clip0_1_2483)">
<rect width="30" height="30" rx="15" fill="#B97C44"/>
<path fill-rule="evenodd" clip-rule="evenodd" d="M16.2273 5.92499C16.0103 5.92499 15.8022 6.01097 15.6487 6.16402C15.4953 6.31707 15.4091 6.52464 15.4091 6.74108V7.86893L14.9689 7.64858C14.8428 7.58564 14.7027 7.55593 14.5618 7.56228C14.4209 7.56862 14.284 7.61082 14.1641 7.68485C14.0442 7.75887 13.9453 7.86227 13.8768 7.9852C13.8083 8.10813 13.7725 8.24651 13.7727 8.38715V14.565L11.5604 16.7709C11.4054 16.9254 11.3183 17.135 11.3182 17.3536V22.2469C10.8725 22.2469 10.5 22.6185 10.5 23.063C10.5 23.5075 10.5 24.075 10.5 24.075H19.5C19.5 24.075 19.5 23.5075 19.5 23.063C19.5 22.6185 19.1274 22.2469 18.6818 22.2469V10.0104C18.6818 9.85737 18.639 9.70741 18.5584 9.57725C18.4778 9.4471 18.3624 9.3419 18.2253 9.27343L17.0454 8.68503V6.74108C17.0454 6.52464 16.9592 6.31707 16.8058 6.16402C16.6524 6.01097 16.4443 5.92499 16.2273 5.92499ZM16.3467 11.1807C16.4039 11.1235 16.4768 11.0845 16.5561 11.0687C16.6355 11.0529 16.7178 11.0609 16.7926 11.0917C16.8674 11.1226 16.9314 11.1748 16.9764 11.242C17.0214 11.3091 17.0454 11.388 17.0454 11.4687V12.6227C17.0455 12.6763 17.035 12.7294 17.0145 12.779C16.994 12.8286 16.9639 12.8736 16.926 12.9116L16.1078 13.7277C16.0506 13.7849 15.9776 13.8239 15.8982 13.8397C15.8187 13.8555 15.7364 13.8474 15.6615 13.8165C15.5867 13.7855 15.5227 13.7331 15.4778 13.6659C15.4328 13.5986 15.4089 13.5196 15.4091 13.4388V12.2848C15.409 12.2312 15.4195 12.1781 15.44 12.1285C15.4605 12.079 15.4906 12.0339 15.5285 11.9959L16.3467 11.1807ZM16.6527 15.8177C16.8515 15.71 17.0454 15.901 17.0454 16.1262V17.5193C17.0455 17.5729 17.035 17.626 17.0145 17.6756C16.994 17.7252 16.9639 17.7702 16.926 17.8082L14.2317 20.4956C14.1937 20.5335 14.1485 20.5635 14.0988 20.5839C14.0491 20.6044 13.9958 20.6148 13.9421 20.6147H13.3636C13.2551 20.6147 13.1511 20.5717 13.0744 20.4952C12.9976 20.4187 12.9545 20.3149 12.9545 20.2067V19.6297C12.9544 19.5761 12.9649 19.523 12.9854 19.4734C13.0059 19.4238 13.036 19.3788 13.074 19.3408L16.467 15.9573C16.5222 15.9024 16.585 15.8557 16.6535 15.8185L16.6527 15.8177Z" fill="black" fill-opacity="0.7"/>
</g>
<rect x="0.5" y="0.5" width="29" height="29" rx="14.5" stroke="#C4C4C4"/>
<defs>
<clipPath id="clip0_1_2483">
<rect width="30" height="30" rx="15" fill="white"/>
</clipPath>
</defs>
</svg>
