<svg width="30" height="30" viewBox="0 0 30 30" fill="none" xmlns="http://www.w3.org/2000/svg">
<rect x="0.5" y="0.5" width="29" height="29" rx="14.5" fill="#62B944"/>
<rect x="0.5" y="0.5" width="29" height="29" rx="14.5" stroke="#C4C4C4"/>
<path d="M14.9972 20.5364C15.6812 20.5364 16.2619 20.9634 16.4846 21.5566C16.9221 21.4617 17.3436 21.3273 17.7493 21.1454L16.3494 17.8631C15.9358 18.0608 15.4824 18.1636 14.9972 18.1636C14.512 18.1636 14.0586 18.0608 13.645 17.8631L12.245 21.1454C12.6507 21.3273 13.0723 21.4617 13.5097 21.5566C13.7325 20.9634 14.3131 20.5364 14.9972 20.5364ZM19.9685 19.5556C19.7697 19.2867 19.6185 18.9545 19.6185 18.5591C19.6185 17.697 20.3344 16.9773 21.2094 16.9773L21.4559 17.001C21.6548 16.3683 21.7582 15.696 21.7582 15C21.7582 14.304 21.6548 13.6317 21.4559 13.0227H21.2094C20.3265 13.0227 19.6185 12.3188 19.6185 11.4409C19.6185 11.0454 19.7458 10.7212 19.9685 10.4444C19.0392 9.44024 17.8237 8.74213 16.4846 8.44335C16.2619 9.03653 15.6812 9.46362 14.9972 9.46362C14.3131 9.46362 13.7325 9.03653 13.5097 8.44335C12.1706 8.74213 10.9552 9.44024 10.0258 10.4444C10.2485 10.7212 10.3838 11.0692 10.3838 11.4409C10.3838 11.8604 10.2162 12.2628 9.91782 12.5594C9.61948 12.8561 9.21485 13.0227 8.79293 13.0227H8.5384C8.33955 13.6396 8.23614 14.304 8.23614 15C8.23614 15.7039 8.3475 16.3762 8.54635 17.0168L8.79293 16.9773C9.67584 16.9773 10.3838 17.7049 10.3838 18.5591C10.3838 18.9545 10.2565 19.2946 10.0338 19.5635C10.2883 19.8404 10.5747 20.0934 10.869 20.3228L12.3803 16.7954C12.0223 16.2813 11.8155 15.6644 11.8155 15C11.8155 14.1609 12.1507 13.3563 12.7474 12.763C13.3441 12.1697 14.1533 11.8364 14.9972 11.8364C15.841 11.8364 16.6503 12.1697 17.2469 12.763C17.8436 13.3563 18.1788 14.1609 18.1788 15C18.1788 15.6644 17.972 16.2813 17.6141 16.7954L19.1254 20.3228C19.4276 20.0934 19.706 19.8324 19.9685 19.5556ZM14.9972 23.7C14.2018 23.7 13.5336 23.1147 13.4063 22.3475C12.9008 22.2398 12.4077 22.0808 11.9348 21.873L11.1553 23.7H9.42926L10.5508 21.0742C10.128 20.7736 9.74101 20.4259 9.39745 20.0381C9.20655 20.1172 9.00769 20.1409 8.79293 20.1409C8.37102 20.1409 7.96638 19.9742 7.66805 19.6776C7.36971 19.3809 7.2021 18.9786 7.2021 18.5591C7.2021 18.0687 7.44073 17.6258 7.81457 17.3332C7.31855 15.8253 7.31576 14.2 7.80662 12.6905C7.54673 12.4864 7.35718 12.2068 7.26427 11.8907C7.17135 11.5746 7.17967 11.2376 7.28808 10.9264C7.39648 10.6152 7.59959 10.3452 7.86924 10.154C8.1389 9.96274 8.46172 9.85967 8.79293 9.85908C8.99974 9.85908 9.19859 9.90653 9.37359 9.97772C10.4342 8.79497 11.8472 7.98024 13.4063 7.65244C13.5336 6.88526 14.2018 6.29999 14.9972 6.29999C15.7926 6.29999 16.4607 6.88526 16.588 7.65244C18.1788 7.98462 19.5629 8.81508 20.6128 9.96981C20.7957 9.89862 20.9946 9.85908 21.2094 9.85908C21.6313 9.85908 22.0359 10.0257 22.3343 10.3224C22.6326 10.619 22.8002 11.0214 22.8002 11.4409C22.7993 11.6805 22.7438 11.9167 22.6377 12.1318C22.5316 12.347 22.3777 12.5353 22.1877 12.6826C22.4264 13.4182 22.5536 14.2091 22.5536 15C22.5536 15.7909 22.4264 16.5818 22.1877 17.3174C22.5536 17.61 22.8002 18.0608 22.8002 18.5591C22.8002 19.4449 22.0923 20.1409 21.2094 20.1409C20.9946 20.1409 20.7957 20.1093 20.6048 20.0302C20.2549 20.4177 19.8651 20.7657 19.4435 21.0742L20.5651 23.7H18.839L18.0595 21.873C17.5823 22.0786 17.0891 22.2447 16.588 22.3475C16.4607 23.1147 15.7926 23.7 14.9972 23.7Z" fill="black" fill-opacity="0.7"/>
</svg>
