<svg width="30" height="30" viewBox="0 0 30 30" fill="none" xmlns="http://www.w3.org/2000/svg">
<rect x="0.5" y="0.5" width="29" height="29" rx="14.5" fill="#5EC7A1"/>
<rect x="0.5" y="0.5" width="29" height="29" rx="14.5" stroke="#C4C4C4"/>
<path d="M21.0001 22.8H8.8501C8.8501 21.4733 9.92557 20.3979 11.2522 20.3979H18.598C19.9246 20.3979 21.0001 21.4733 21.0001 22.8ZM18.705 9.55501H16.6779V8.71838C16.6779 7.79695 15.931 7.04999 15.0095 7.04999C14.0881 7.04999 13.3411 7.79695 13.3411 8.71838V9.55501H11.1452V8.14814C11.1452 7.54165 10.6536 7.04999 10.0471 7.04999C9.44058 7.04999 8.94892 7.54165 8.94892 8.14815V11.6008H20.9013V8.14815C20.9013 7.54165 20.4096 7.04999 19.8031 7.04999C19.1966 7.04999 18.705 7.54165 18.705 8.14815V9.55501ZM19.6506 12.2466H10.1996V19.7573H19.6506V12.2466Z" fill="black" fill-opacity="0.7"/>
</svg>
