<svg width="30" height="30" viewBox="0 0 30 30" fill="none" xmlns="http://www.w3.org/2000/svg">
<rect x="0.5" y="0.5" width="29" height="29" rx="14.5" fill="#B7B944"/>
<rect x="0.5" y="0.5" width="29" height="29" rx="14.5" stroke="#C4C4C4"/>
<path d="M21.1624 12.4064L17.2498 14.8962V12.9758C17.2498 12.4438 16.6611 12.1209 16.2124 12.4064L12.2998 14.8962V9.37501C12.2998 9.00222 11.9976 8.70001 11.6248 8.70001H8.4748C8.10201 8.70001 7.7998 9.00222 7.7998 9.37501V20.625C7.7998 20.9978 8.10201 21.3 8.4748 21.3H21.5248C21.8976 21.3 22.1998 20.9978 22.1998 20.625V12.9758C22.1998 12.4438 21.6111 12.1209 21.1624 12.4064Z" fill="black" fill-opacity="0.7"/>
</svg>
