<svg width="30" height="30" viewBox="0 0 30 30" fill="none" xmlns="http://www.w3.org/2000/svg">
<rect x="0.5" y="0.5" width="29" height="29" rx="14.5" fill="#A478B9"/>
<rect x="0.5" y="0.5" width="29" height="29" rx="14.5" stroke="#C4C4C4"/>
<path d="M15.0001 17.325C16.3256 17.325 17.4001 16.2841 17.4001 15C17.4001 13.7159 16.3256 12.675 15.0001 12.675C13.6746 12.675 12.6001 13.7159 12.6001 15C12.6001 16.2841 13.6746 17.325 15.0001 17.325Z" fill="black" fill-opacity="0.7"/>
<path d="M12.7949 7.57501L11.4499 9.05835H9.1199C8.3114 9.05835 7.6499 9.72585 7.6499 10.5417V19.4417C7.6499 20.2575 8.3114 20.925 9.1199 20.925H20.8799C21.6884 20.925 22.3499 20.2575 22.3499 19.4417V10.5417C22.3499 9.72585 21.6884 9.05835 20.8799 9.05835H18.55L17.2049 7.57501H12.7949ZM14.9999 18.7C12.9713 18.7 11.3249 17.0387 11.3249 14.9917C11.3249 12.9447 12.9713 11.2833 14.9999 11.2833C17.0285 11.2833 18.6749 12.9447 18.6749 14.9917C18.6749 17.0387 17.0285 18.7 14.9999 18.7Z" fill="black" fill-opacity="0.7"/>
</svg>
