<svg width="30" height="30" viewBox="0 0 30 30" fill="none" xmlns="http://www.w3.org/2000/svg">
<rect x="0.5" y="0.5" width="29" height="29" rx="14.5" fill="#4496B9"/>
<rect x="0.5" y="0.5" width="29" height="29" rx="14.5" stroke="#C4C4C4"/>
<path d="M13.56 22.65V19.62C13.56 19.2182 13.7196 18.8329 14.0037 18.5487C14.2879 18.2646 14.6732 18.105 15.075 18.105C15.4768 18.105 15.8621 18.2646 16.1463 18.5487C16.4304 18.8329 16.59 19.2182 16.59 19.62V22.65H19.62V15.075C19.62 14.9443 19.5861 14.8158 19.5218 14.7021C19.4574 14.5883 19.3647 14.4931 19.2526 14.4258L15.8325 12.3738V10.53H17.3475V9.015H15.8325V7.5H14.3175V9.015H12.8025V10.53H14.3175V12.3738L10.8974 14.4258C10.7853 14.4931 10.6926 14.5883 10.6282 14.7021C10.5639 14.8158 10.53 14.9443 10.53 15.075V22.65H13.56ZM9.7725 22.65V16.5006L7.9189 17.4278C7.79298 17.4905 7.68706 17.5871 7.61306 17.7068C7.53906 17.8264 7.4999 17.9643 7.5 18.105V22.65C8.2575 22.65 9.015 22.65 9.7725 22.65ZM22.2311 17.427L20.3775 16.5006V22.65C21.0426 22.65 22.65 22.65 22.65 22.65V18.105C22.65 17.8179 22.4879 17.5558 22.2311 17.427Z" fill="black" fill-opacity="0.7"/>
</svg>
