<svg width="30" height="30" viewBox="0 0 30 30" fill="none" xmlns="http://www.w3.org/2000/svg">
<rect x="0.5" y="0.5" width="29" height="29" rx="14.5" fill="#B9B678"/>
<rect x="0.5" y="0.5" width="29" height="29" rx="14.5" stroke="#C4C4C4"/>
<path d="M7.3501 15C7.3501 12.9711 8.15608 11.0253 9.59073 9.59061C11.0254 8.15596 12.9712 7.34998 15.0001 7.34998C17.029 7.34998 18.9748 8.15596 20.4095 9.59061C21.8441 11.0253 22.6501 12.9711 22.6501 15C22.6501 17.0289 21.8441 18.9747 20.4095 20.4093C18.9748 21.844 17.029 22.65 15.0001 22.65C12.9712 22.65 11.0254 21.844 9.59073 20.4093C8.15608 18.9747 7.3501 17.0289 7.3501 15ZM12.2261 9.15067C11.3675 9.55898 10.609 10.1508 10.0041 10.8843L10.7655 13.3605L11.9495 13.7548L14.4116 11.8835V10.6077L12.2261 9.15067ZM8.56939 15.7461C8.68708 16.7642 9.04016 17.7116 9.57331 18.5296H11.8142L12.5615 17.7822L11.5929 14.8752L10.3877 14.4739L8.56939 15.7461ZM13.689 21.3389C14.554 21.5169 15.4462 21.5169 16.3112 21.3389L17.241 19.2487L16.5219 18.5307H13.4783L12.7604 19.2487L13.689 21.3401V21.3389ZM20.4257 18.5307C20.9436 17.7375 21.2919 16.8242 21.419 15.8415L19.6019 14.4786L18.4073 14.8764L17.4387 17.7834L18.186 18.5307H20.4257ZM19.9808 10.8654C19.3785 10.1401 18.6255 9.55457 17.7741 9.14949L15.5886 10.6077V11.8835L18.0507 13.7548L19.2323 13.3617L19.9808 10.8654Z" fill="black" fill-opacity="0.7"/>
</svg>
